:SAMPLES-PER-SECOND 30
:FULLY-SPECIFIED
:DEGREES
112
root  5.94462 37.5875 -4.32225 128.972 -85.5337 -133.265
RightUpLeg  -21.6623 -4.47469 5.93909
RightLeg  27.4882 0.408447 -0.0115089
RightFoot  -2.22126 0.334248 -4.33663
RightToes  9.54606e-009 0 -3.6325e-017
Spine  3.41878 -0.370894 10.7738
Spine1  8.35701 0.931195 -0.758822
HEad  -14.6583 0.623834 -5.41907
LeftShoulder1  -0.579314 4.95036 -33.884
LeftArm  9.47875 4.17473 -43.9685
LeftForeArm  25.2922 -19.6841 -4.949
LeftHand  -0.0870227 8.62278 -1.41596
RightShoulder  -0.997155 -6.17504 30.7604
RightArm  14.6374 -5.72363 43.0873
RightForeArm  19.0999 10.3578 6.53606
RightHand  0.0380964 0.058497 0.805177
LeftUpLeg  3.54533 3.57112 4.30434
LeftLeg  50.9851 -5.52929 -6.79119
LeftFoot  3.46698 1.43843 -11.7129
LeftToes  -8.26734e-010 9.74065e-011 1.64617e-011
113
root  4.73426 37.5927 -4.44514 110.783 -84.9066 -115.172
RightUpLeg  -20.0598 -5.02078 7.2202
RightLeg  28.9152 -0.0827239 -0.301396
RightFoot  -5.10038 0.189495 -4.10551
RightToes  9.54606e-009 0 -3.6325e-017
Spine  3.88946 -0.43797 13.4815
Spine1  8.52132 1.37582 -1.3446
HEad  -15.8665 -0.685343 -5.09493
LeftShoulder1  -0.537122 4.85113 -33.7132
LeftArm  10.5118 4.72151 -43.843
LeftForeArm  26.237 -19.1781 -5.30006
LeftHand  -0.0985545 7.95114 -2.32536
RightShoulder  -1.0217 -6.22413 30.9933
RightArm  15.5034 -4.36666 43.1554
RightForeArm  17.9847 11.3221 6.51885
RightHand  0.0334868 0.437692 0.622248
LeftUpLeg  -2.50061 1.63067 5.56174
LeftLeg  59.2945 -3.66688 -6.15264
LeftFoot  11.8896 1.70643 -8.47655
LeftToes  -8.26734e-010 9.74065e-011 1.64617e-011
114
root  3.44204 37.7955 -4.58163 107.571 -84.8609 -112.084
RightUpLeg  -17.516 -4.99336 7.28027
RightLeg  28.8126 -0.328971 -0.451969
RightFoot  -7.28558 0.0922516 -3.98919
RightToes  9.54606e-009 0 -3.6325e-017
Spine  4.02135 -0.0753243 14.6843
Spine1  8.54463 2.05938 -2.14587
HEad  -16.6452 -1.56359 -4.65389
LeftShoulder1  -0.503554 4.76493 -33.7748
LeftArm  10.371 5.32592 -43.4517
LeftForeArm  26.809 -18.6021 -5.64399
LeftHand  -0.101006 8.27908 -2.11071
RightShoulder  -1.0445 -6.28364 31.016
RightArm  16.7758 -2.76693 43.4106
RightForeArm  15.9842 12.2363 6.56771
RightHand  0.0220256 0.524361 0.380727
LeftUpLeg  -7.29002 0.180791 5.70738
LeftLeg  63.5887 -3.0318 -6.03091
LeftFoot  6.9468 1.02214 -6.6353
LeftToes  -8.26734e-010 9.74065e-011 1.64617e-011
115
root  2.16574 38.0374 -4.71376 113.516 -85.2345 -117.931
RightUpLeg  -15.0581 -4.83291 6.71479
RightLeg  28.2731 -0.200569 -0.365048
RightFoot  -9.14591 0.0146979 -4.02822
RightToes  9.54606e-009 0 -3.6325e-017
Spine  4.04664 0.463668 14.982
Spine1  8.18957 2.76567 -3.00548
HEad  -16.7644 -2.29454 -4.46929
LeftShoulder1  -0.509702 4.78812 -33.5353
LeftArm  7.55863 6.49141 -43.3308
LeftForeArm  28.6903 -17.9099 -5.81055
LeftHand  -0.106112 8.10156 -2.49046
RightShoulder  -0.99632 -6.17448 30.7357
RightArm  17.7153 -0.860904 44.1018
RightForeArm  15.2234 12.8477 6.58055
RightHand  0.00331288 0.667367 -0.00756466
LeftUpLeg  -11.7337 -0.474431 5.22755
LeftLeg  63.9858 -2.84285 -5.72766
LeftFoot  4.58173 0.719493 -5.34392
LeftToes  -8.26734e-010 9.74065e-011 1.64617e-011
116
root  0.91007 38.2517 -4.84955 119.718 -85.461 -124.077
RightUpLeg  -12.4043 -4.7092 6.22288
RightLeg  27.3335 -0.132748 -0.300669
RightFoot  -10.7349 -0.0489733 -4.33385
RightToes  9.54606e-009 0 -3.6325e-017
Spine  4.57019 0.905406 15.0035
Spine1  7.04178 3.24611 -3.53619
HEad  -16.6765 -2.53229 -4.87138
LeftShoulder1  -0.494455 4.7426 -33.759
LeftArm  7.55463 8.14901 -42.2703
LeftForeArm  26.9046 -18.3888 -5.53543
LeftHand  -0.123551 8.47063 -2.71021
RightShoulder  -0.946766 -6.07906 30.1873
RightArm  19.2084 0.762861 44.8248
RightForeArm  14.6501 13.8479 6.48852
RightHand  0.00433429 0.694852 0.0100821
LeftUpLeg  -15.6126 -1.23341 4.77284
LeftLeg  61.5844 -2.80736 -5.03359
LeftFoot  2.11538 0.438318 -3.80388
LeftToes  -8.26734e-010 9.74065e-011 1.64617e-011
117
root  -0.421351 38.4804 -4.98235 131.315 -85.5145 -135.889
RightUpLeg  -9.13837 -4.85726 5.47731
RightLeg  25.9253 0.578588 0.0847683
RightFoot  -12.244 -0.117145 -4.3406
RightToes  9.54606e-009 0 -3.6325e-017
Spine  4.27275 1.44903 14.9304
Spine1  7.155 3.82973 -4.36336
HEad  -16.5912 -3.01667 -4.69288
LeftShoulder1  -0.502293 4.7653 -33.6665
LeftArm  6.44584 9.27526 -41.4598
LeftForeArm  27.1903 -18.0164 -5.64635
LeftHand  -0.159126 8.86245 -3.51098
RightShoulder  -0.917246 -6.03225 29.696
RightArm  20.7724 2.41082 45.6456
RightForeArm  13.6517 15.3342 6.12369
RightHand  -0.00115933 0.846047 -0.112056
LeftUpLeg  -17.9767 -1.03121 4.28554
LeftLeg  56.2378 -3.26619 -4.78287
LeftFoot  -0.220596 0.217707 -2.25043
LeftToes  -8.26734e-010 9.74065e-011 1.64617e-011
118
root  -1.69962 38.6407 -5.11625 139.956 -85.6239 -144.463
RightUpLeg  -6.27093 -5.29861 4.71162
RightLeg  24.4622 1.27396 0.381937
RightFoot  -13.6177 -0.183819 -4.61631
RightToes  9.54606e-009 0 -3.6325e-017
Spine  3.99769 1.7862 14.6107
Spine1  7.03357 4.12565 -5.19858
HEad  -17.2979 -2.72288 -5.22573
LeftShoulder1  -0.502809 4.77467 -33.4035
LeftArm  5.47989 10.0916 -40.7508
LeftForeArm  27.4547 -17.3629 -5.93572
LeftHand  -0.122294 8.32222 -2.85339
RightShoulder  -0.914161 -6.02423 29.6855
RightArm  22.6382 4.06621 45.9742
RightForeArm  10.934 17.0724 5.6814
RightHand  -0.0373457 0.751446 -0.777286
LeftUpLeg  -19.8914 -0.656125 3.7729
LeftLeg  48.8154 -3.35791 -3.68948
LeftFoot  -1.64797 0.203818 -2.29711
LeftToes  -8.26734e-010 9.74065e-011 1.64617e-011
119
root  -2.9736 38.7709 -5.22677 150.752 -85.3351 -155.147
RightUpLeg  -3.53032 -5.52957 3.91363
RightLeg  23.0935 2.18703 0.70158
RightFoot  -14.6575 -0.244735 -5.02505
RightToes  9.54606e-009 0 -3.6325e-017
Spine  3.79448 2.20642 14.3997
Spine1  6.83424 4.55418 -6.3179
HEad  -17.4564 -2.58617 -5.13447
LeftShoulder1  -0.449041 4.64557 -33.1813
LeftArm  4.59959 11.0706 -40.0139
LeftForeArm  28.6597 -16.7933 -6.14395
LeftHand  -0.100435 7.65263 -2.7182
RightShoulder  -0.938214 -6.08535 29.7615
RightArm  24.4189 5.49438 46.1072
RightForeArm  8.54415 18.8836 5.21728
RightHand  -0.0565447 1.19027 -1.11664
LeftUpLeg  -20.7821 0.353088 3.21796
LeftLeg  39.3125 -3.61053 -2.7964
LeftFoot  -1.38748 0.277565 -3.08143
LeftToes  -8.26734e-010 9.74065e-011 1.64617e-011
120
root  -4.25026 38.8355 -5.33883 157.085 -84.8868 -161.279
RightUpLeg  -0.880634 -5.50822 3.41066
RightLeg  21.6872 2.81684 0.806102
RightFoot  -15.6233 -0.304304 -5.31827
RightToes  9.54606e-009 0 -3.6325e-017
Spine  3.31993 2.52663 13.821
Spine1  6.97303 4.70158 -6.62527
HEad  -17.9731 -2.35691 -5.33838
LeftShoulder1  -0.478739 4.71102 -33.5058
LeftArm  3.21887 11.787 -39.0652
LeftForeArm  30.0988 -16.0343 -6.37502
LeftHand  -0.15998 8.93046 -3.46576
RightShoulder  -0.883688 -5.96329 29.3378
RightArm  25.062 6.55378 46.5363
RightForeArm  7.9331 20.6166 4.75027
RightHand  -0.0297877 1.27137 -0.636286
LeftUpLeg  -20.9699 1.58219 2.83134
LeftLeg  28.6361 -3.69385 -1.87196
LeftFoot  0.463775 0.429212 -4.16337
LeftToes  -8.26734e-010 9.74065e-011 1.64617e-011
121
root  -5.5344 38.8807 -5.454 160.027 -84.6763 -164.082
RightUpLeg  2.17419 -5.6544 2.93049
RightLeg  19.6467 3.45647 0.896037
RightFoot  -16.5416 -0.341945 -5.07242
RightToes  9.54606e-009 0 -3.6325e-017
Spine  2.77477 2.6203 13.0972
Spine1  7.13734 4.68137 -7.06658
HEad  -18.0348 -2.19009 -5.12362
LeftShoulder1  -0.465578 4.68797 -33.1703
LeftArm  1.12751 12.5577 -38.6325
LeftForeArm  31.7959 -14.6591 -6.81717
LeftHand  -0.151103 8.83813 -3.22748
RightShoulder  -0.910337 -6.01261 29.6968
RightArm  25.4875 7.62505 46.5125
RightForeArm  7.36714 21.7737 4.60946
RightHand  -0.0488168 1.66328 -0.955884
LeftUpLeg  -20.2455 2.40905 2.31733
LeftLeg  17.1347 -3.34828 -0.833281
LeftFoot  2.66097 0.649479 -5.42328
LeftToes  -8.26734e-010 9.74065e-011 1.64617e-011
122
root  -6.86538 38.8423 -5.5502 162.841 -84.51 -166.977
RightUpLeg  5.46645 -5.90219 2.28198
RightLeg  17.797 4.05939 0.946587
RightFoot  -17.7537 -0.370208 -4.46554
RightToes  9.54606e-009 0 -3.6325e-017
Spine  2.36504 2.75847 11.7341
Spine1  7.3848 4.57361 -6.53204
HEad  -18.1785 -2.40091 -5.24496
LeftShoulder1  -0.481551 4.71814 -33.5057
LeftArm  -0.255734 13.3688 -37.8653
LeftForeArm  33.2039 -13.7319 -7.01223
LeftHand  -0.197779 9.32538 -4.12687
RightShoulder  -0.859915 -5.90385 29.2325
RightArm  25.6375 7.85449 46.7757
RightForeArm  7.45364 22.6834 4.56635
RightHand  -0.0240025 1.73911 -0.544007
LeftUpLeg  -19.1721 3.07819 1.70672
LeftLeg  7.20595 -3.07198 -0.373218
LeftFoot  4.46528 0.807964 -6.02154
LeftToes  -8.26734e-010 9.74065e-011 1.64617e-011
